<?xml version="1.0" standalone="no"?>
<!DOCTYPE svg PUBLIC "-//W3C//DTD SVG 20010904//EN"
 "http://www.w3.org/TR/2001/REC-SVG-20010904/DTD/svg10.dtd">
<svg version="1.0" xmlns="http://www.w3.org/2000/svg"
 width="501.000000pt" height="612.000000pt" viewBox="0 0 501.000000 612.000000"
 preserveAspectRatio="xMidYMid meet">

<g transform="translate(0.000000,612.000000) scale(0.100000,-0.100000)"
fill="#000000" stroke="none">
<path d="M2335 5600 c-178 -28 -383 -114 -524 -220 -577 -436 -625 -1280 -101
-1773 505 -475 1307 -405 1724 150 153 203 229 435 229 693 -1 322 -115 595
-343 822 -163 162 -353 266 -575 315 -84 18 -326 26 -410 13z"/>
<path d="M1665 3056 c-432 -174 -724 -479 -914 -956 -150 -375 -241 -917 -241
-1437 l0 -153 1997 0 1996 0 -6 237 c-29 1174 -368 1924 -1014 2247 -96 48
-219 96 -247 96 -9 0 -42 -13 -74 -29 -141 -71 -339 -124 -527 -142 -257 -24
-568 32 -787 142 -32 16 -68 29 -80 28 -13 0 -59 -15 -103 -33z"/>
</g>
</svg>
